<svg width="512" height="512" viewBox="0 0 512 512" fill="none" xmlns="http://www.w3.org/2000/svg">
  <defs>
    <linearGradient id="logoGradient" x1="88" y1="420" x2="424" y2="92" gradientUnits="userSpaceOnUse">
      <stop offset="0" stop-color="#22D3EE"/>
      <stop offset="0.55" stop-color="#5B8CFF"/>
      <stop offset="1" stop-color="#9B5CFF"/>
    </linearGradient>
    <linearGradient id="logoGlow" x1="132" y1="390" x2="390" y2="132" gradientUnits="userSpaceOnUse">
      <stop offset="0" stop-color="#22D3EE" stop-opacity="0.65"/>
      <stop offset="1" stop-color="#9B5CFF" stop-opacity="0.65"/>
    </linearGradient>
    <filter id="softGlow" x="56" y="56" width="400" height="400" filterUnits="userSpaceOnUse" color-interpolation-filters="sRGB">
      <feGaussianBlur stdDeviation="18" result="blur"/>
      <feBlend in="SourceGraphic" in2="blur" mode="screen"/>
    </filter>
  </defs>

  <g filter="url(#softGlow)">
    <path
      d="M256 86L394 166V346L256 426L118 346V166L256 86Z"
      stroke="url(#logoGlow)"
      stroke-width="22"
      stroke-linejoin="round"
      opacity="0.28"
    />
  </g>

  <path
    d="M256 98L382 171V341L256 414L130 341V171L256 98Z"
    stroke="url(#logoGradient)"
    stroke-width="18"
    stroke-linejoin="round"
  />

  <path
    d="M170 322L222 270L264 302L336 214"
    stroke="url(#logoGradient)"
    stroke-width="18"
    stroke-linecap="round"
    stroke-linejoin="round"
  />

  <path d="M196 312V238" stroke="url(#logoGradient)" stroke-width="26" stroke-linecap="round"/>
  <path d="M256 332V198" stroke="url(#logoGradient)" stroke-width="26" stroke-linecap="round"/>
  <path d="M316 292V234" stroke="url(#logoGradient)" stroke-width="26" stroke-linecap="round"/>

  <circle cx="170" cy="322" r="15" fill="#22D3EE"/>
  <circle cx="222" cy="270" r="15" fill="#4CD0F5"/>
  <circle cx="264" cy="302" r="15" fill="#6C9EFF"/>
  <circle cx="336" cy="214" r="15" fill="#9B5CFF"/>

  <path
    d="M230 144L256 120L282 144L256 170L230 144Z"
    stroke="url(#logoGradient)"
    stroke-width="14"
    stroke-linejoin="round"
  />
</svg>
